<?xml version="1.0" encoding="UTF-8"?>
<svg id="Layer_2" data-name="Layer 2" xmlns="http://www.w3.org/2000/svg" viewBox="0 0 57 55">
  <defs>
    <style>
      .cls-1 {
        fill: none;
        stroke: #e0e0e0;
        stroke-miterlimit: 10;
        stroke-width: 3px;
      }
    </style>
  </defs>
  <g id="Layer_1-2" data-name="Layer 1">
    <g>
      <g>
        <path class="cls-1" d="M31.1,43.5s5.77,7.1,9.71,3.05c2.34-2.4,1.13-4.76,1.13-4.76,0,0,3.29,.07,4.93-1.62,1.64-1.69,.62-4.86,.62-4.86,0,0,1.94,1.58,4.2-.74,2.26-2.32,.12-5.82,.12-5.82-2.7-2.44-6.22-6.42-8.81-9.28-1.37-1.41-2.79-2.86-4.18-4.26-3.2-2.8-4.98-2.7-7.67,.07-2.54,2.61-7.34,7.6-10.58,4.27-2.21-2.27-1.23-5.14,.9-7.26,1.97-1.97,4.39-4.32,7.18-6.3C25.18,3.4,21.24,.69,14.96,1.73,8.73,2.75,3.41,7.26,1.96,13.57-.07,22.39,5.3,27.92,5.3,27.92"/>
        <path class="cls-1" d="M38.81,15.21c.62,.54,1.29,1.19,2.04,1.96,.58,.6,1.32,1.4,2.14,2.31,4.74,4.89,8.81,9.28,8.81,9.28,8.86-11.26,.3-25.76-9.87-26.87-5.05-.55-9.52,1.45-13.29,4.11"/>
      </g>
      <line class="cls-1" x1="37.69" y1="25.85" x2="47.49" y2="35.31"/>
      <line class="cls-1" x1="31.95" y1="32.3" x2="41.94" y2="41.79"/>
      <path class="cls-1" d="M6.52,33.11h0c-1.48-1.78-1.26-4.48,.47-5.99l3.68-3.21c1.73-1.52,4.36-1.3,5.84,.48h0c1.48,1.78,1.26,4.48-.47,5.99l-3.68,3.21c-1.73,1.52-4.36,1.3-5.84-.48Z"/>
      <path class="cls-1" d="M12,39.68h0c-1.48-1.78-1.26-4.48,.47-5.99l3.68-3.21c1.73-1.52,4.36-1.3,5.84,.48h0c1.48,1.78,1.26,4.48-.47,5.99l-3.68,3.21c-1.73,1.52-4.36,1.3-5.84-.48Z"/>
      <path class="cls-1" d="M17.36,46.15h0c-1.48-1.78-1.26-4.48,.47-5.99l3.68-3.21c1.73-1.52,4.36-1.3,5.84,.48h0c1.48,1.78,1.26,4.48-.47,5.99l-3.68,3.21c-1.73,1.52-4.36,1.3-5.84-.48Z"/>
      <path class="cls-1" d="M22.78,52.23h0c-1.25-1.51-1.07-3.8,.4-5.09l3.8-3.32c1.47-1.29,3.7-1.1,4.95,.41h0c1.25,1.51,1.07,3.8-.4,5.09l-3.8,3.32c-1.47,1.29-3.7,1.1-4.95-.41Z"/>
    </g>
  </g>
</svg>