<?xml version="1.0" encoding="UTF-8"?>
<svg id="Layer_2" data-name="Layer 2" xmlns="http://www.w3.org/2000/svg" viewBox="0 0 55.78 52.36">
  <g id="Layer_1-2" data-name="Layer 1">
    <g>
      <path class="cls-1" d="M30.53,41.99s5.85,7.01,9.85,3.01c2.37-2.37,1.15-4.7,1.15-4.7,0,0,3.34,.07,5.01-1.6,1.67-1.67,.63-4.8,.63-4.8,0,0,1.97,1.56,4.26-.73,2.29-2.29,.12-5.75,.12-5.75-2.74-2.41-6.31-6.34-8.94-9.17-1.39-1.39-2.83-2.83-4.24-4.21-3.25-2.77-5.05-2.66-7.78,.06-2.58,2.58-7.45,7.51-10.74,4.22-2.24-2.24-1.24-5.08,.91-7.17,2-1.94,4.45-4.26,7.29-6.22C24.52,2.38,20.53-.3,14.16,.72,7.83,1.74,2.44,6.19,.96,12.43c-2.06,8.7,3.39,14.17,3.39,14.17"/>
      <path class="cls-1" d="M38.35,14.04c.63,.54,1.31,1.17,2.07,1.93,.59,.59,1.34,1.38,2.17,2.28,4.81,4.83,8.94,9.17,8.94,9.17,8.98-11.12,.3-25.45-10.01-26.54-5.12-.54-9.66,1.43-13.48,4.06"/>
    </g>
    <line class="cls-1" x1="37.22" y1="24.55" x2="47.15" y2="33.9"/>
    <line class="cls-1" x1="31.39" y1="30.92" x2="41.52" y2="40.3"/>
    <rect class="cls-1" x="6.46" y="20.77" width="8.4" height="13.3" rx="4.2" ry="4.2" transform="translate(24.63 1.53) rotate(49.61)"/>
    <rect class="cls-1" x="12.01" y="27.25" width="8.4" height="13.3" rx="4.2" ry="4.2" transform="translate(31.53 -.42) rotate(49.61)"/>
    <rect class="cls-1" x="17.46" y="33.65" width="8.4" height="13.3" rx="4.2" ry="4.2" transform="translate(38.31 -2.31) rotate(49.61)"/>
    <rect class="cls-1" x="23.17" y="40.56" width="7.13" height="12.2" rx="3.56" ry="3.56" transform="translate(44.95 -3.94) rotate(49.61)"/>
  </g>
</svg>