<?xml version="1.0" encoding="UTF-8"?>
<svg id="Layer_2" data-name="Layer 2" xmlns="http://www.w3.org/2000/svg" viewBox="0 0 200.68 158.13">
  <defs>
    <style>
      .cls-1 {
        fill: #04473a;
      }

      .cls-2 {
        fill: #ef9d7f;
      }

      .cls-3 {
        fill: #6ba096;
      }

      .cls-4 {
        fill: #bfe8e0;
      }

      .cls-5 {
        fill: #3ebaa8;
      }

      .cls-6 {
        fill: #1b2c47;
      }

      .cls-7 {
        fill: #32d8b8;
        font-family: OpenSans-Regular, 'Open Sans';
        font-size: 21px;
        font-variation-settings: 'wght' 400, 'wdth' 100;
      }
    </style>
  </defs>
  <g id="OBJECTS">
    <g>
      <path class="cls-3" d="M147.4,49c-1.24-2.04-5.09-1.06-9.56-.61-26.8-9.12-55.29-8.21-80.2,0-4.47-.45-8.32-1.43-9.56,.61-1.13,1.86,.09,6.56,1.17,10.14-2.11,26.21-1.58,48.8,3.25,65.49l44.47,1.42v.05s.77-.02,.77-.02l.77,.02v-.05s44.47-1.42,44.47-1.42c4.83-16.69,5.36-39.28,3.25-65.49,1.08-3.58,2.31-8.28,1.17-10.14Z"/>
      <path class="cls-6" d="M115.42,70.62h-.14c-.08,0-8.48-.22-17.47-1.34-12.12-1.52-19.48-3.89-21.88-7.06-5.58-7.35-12.34-9.93-12.4-9.95l.17-.47c.07,.03,6.96,2.65,12.63,10.12,5.36,7.07,36.43,8.12,38.82,8.2,.71-1.14,6.2-9.81,12.02-15.2l.34,.37c-6.16,5.71-11.95,15.13-12.01,15.22l-.08,.12Z"/>
    </g>
    <path class="cls-1" d="M90.3,102.16c2.84,.09,7.1-18.35,9.87-18.17,2.79,.18,4.09,18.99,6.8,19.26,65.33,17.69,83.1,19.5,93.71,54.63H0c5.71-28.19,9.52-39.05,90.3-55.72Z"/>
    <path class="cls-4" d="M31.71,136.48c-1.82,0-3.69-.37-5.56-1.25-4.31-2.01-6.54-5.7-6.64-5.85l.33-.29c.09,.15,9.05,14.66,25.16,1l.23,.41c-3.5,2.97-8.34,5.98-13.53,5.98Z"/>
    <polygon class="cls-2" points="114.24 57.91 109.34 56.68 109.34 48.14 85.74 48.14 85.74 56.6 79.64 58.5 80.49 65.2 82.95 69.77 85.34 71.5 95.69 71.5 112.54 70.58 115.28 65.4 114.24 57.91"/>
    <path class="cls-5" d="M79.71,58.23c-7.09,2.01-17.9,5.35-21.14,7.79-4.94,3.72-20.79,32.3-20.79,32.3,0,0,8.8,7.93,23.48,10.5,.12,.02,.23,.04,.35,.06,7.05,1.19,21.99-23.97,36.94-24.11,14.98,1.92,31.55,26.46,33.01,24.62l1.2-1.73s10.93-1.2,21.93-5.61c-3.24-16.66-9.81-27.94-10.44-29.08-.84-1.68-5.62-8.48-13.51-11.17-2.38-.92-11.12-3.01-16.62-4.28-1.03,2.04-6.48,7.05-16.9,6.98-10.42-.07-17.47-6.29-17.52-6.28Z"/>
    <path class="cls-1" d="M90.73,82.91s-.76-2.13-.14-3.39c.61-1.25,6-3.96,6.95-4.88,.95-.91,2.03-.78,2.51,0,.47,.78,.58,4.54,.95,5.52,.37,.98,1.6,1.37,1.6,1.37l4.73,.36,2.2,3.25s-.47,3.01-.58,3.01h-5.08l-3.69-2.51-1.87,.28s-.29,1.17-2.83,1.21c-2.54,.03-6.74-2-6.74-2v-.71l2-1.52Z"/>
    <g id="Layer_5" data-name="Layer 5">
      <text class="cls-7" transform="translate(45.23 147.06)"><tspan x="0" y="0">Need Help?</tspan></text>
    </g>
    <path class="cls-2" d="M96.46,93.49c1.3-1.24,.86-4.82-.58-5.06,2.67-1.76,.82-5.91-2.17-4.84l-4.18,1.56,1.2-2.23c-.17-.59-.27-1.05-.27-1.05,0,0-2.61,2.04-4.81,3.36-2.2,1.32-3.79,3.45-5.55,5.42-1.76,1.96-5.21,4.91-5.21,4.91l-16.58,12.67s-6.78-1.38-15.99-6.59c-2.4,6.88-3.84,13.93-4.54,21.13-1.47,9.75,9.09,16.16,17.23,10.31,7.72-5.38,17.83-15.12,27.87-26.14,0,0,4.2-.55,8.26-1.9,7.47-2.64,5.32-6.89,5.32-6.89,.88-.86,1.15-3.92,0-4.64Z"/>
    <path class="cls-6" d="M85.01,87.78l-.26-.43c.12-.07,2.98-1.8,4.7-2.44l.17,.47c-1.67,.62-4.58,2.38-4.61,2.4Z"/>
    <rect class="cls-6" x="93.73" y="88.64" width="2.25" height=".5" transform="translate(-28.29 47.25) rotate(-24.46)"/>
    <polygon class="cls-6" points="94.08 95.14 93.83 94.71 96.33 93.27 96.58 93.7 94.08 95.14"/>
    <rect class="cls-6" x="94.51" y="98.56" width="2.19" height=".5" transform="translate(-40.8 81.55) rotate(-38.73)"/>
    <path class="cls-2" d="M107.58,85.58l-5.72-3.06c-3.1-1.37-4.32,2.36-3.3,4.01-.95,.54-.96,3.81-.36,5.18-.76,1.15-.66,3.48,.04,4.57-1.28,1.5-.87,3.51-.2,4.4,0,0,2.59,2.84,7.13,5.15,3.04,1.32,7.5,1.93,7.5,1.93l24.44,25.97c7.21,6.84,18.84,3.74,18.54-9.07-.34-7.44-1.01-14.82-2.02-22.14l-20.85,5.14-13.97-11.53s-3.5-8.68-4.89-10.48c-1.39-1.79-5.25-4.91-5.86-5.11-.61-.25-5.78-.81-5.78-.81,0,0-.31,1.63,.3,1.8,0,0,4.33,1.06,4.86,1.39s.15,2.66,.15,2.66Z"/>
    <polygon class="cls-6" points="99.59 87.56 98.41 86.73 98.7 86.33 99.88 87.16 99.59 87.56"/>
    <rect class="cls-6" x="98.65" y="91.33" width=".5" height="1.67" transform="translate(-32.26 124.92) rotate(-57)"/>
    <rect class="cls-6" x="98.73" y="95.89" width=".5" height="1.83" transform="translate(-37.11 122.23) rotate(-54.95)"/>
    <polygon class="cls-6" points="110.32 87.41 107.46 85.8 107.7 85.36 110.56 86.97 110.32 87.41"/>
    <path class="cls-6" d="M61.73,105.58c-1.85-10.5-1.84-15.66-1.84-21.64,0-1.78,0-3.62-.05-5.68h.5c.05,2.06,.05,3.9,.05,5.68,0,5.95,0,11.1,1.83,21.55l-.49,.09Z"/>
    <path class="cls-6" d="M130.11,105.59l-.49-.12c2.55-10.51,3.42-20.78,2.58-30.53l.5-.04c.84,9.81-.03,20.13-2.59,30.69Z"/>
    <path class="cls-6" d="M74.05,98.67c-.17-1.56,.58-3.17,.62-3.24l.45,.21s-.73,1.55-.57,2.97l-.5,.05Z"/>
    <path class="cls-6" d="M118.91,97.92c-.07-.92-.34-1.7-.34-1.71l.47-.17s.3,.85,.37,1.84l-.5,.04Z"/>
    <path class="cls-4" d="M83.92,112.34l-.12-.49c.07-.02,7.18-1.85,11.89-7.74l.39,.31c-4.82,6.03-12.08,7.9-12.16,7.92Z"/>
    <path class="cls-4" d="M111.33,118.43c-9.46-5.84-14.28-16.82-14.32-16.93l.46-.2c.05,.11,4.8,10.95,14.13,16.7l-.26,.43Z"/>
    <path class="cls-6" d="M97.74,61.39c-.87,0-1.74-.2-2.6-.61l.21-.45c1.58,.74,3.19,.74,4.77,0l.21,.45c-.86,.41-1.73,.61-2.6,.61Z"/>
    <rect class="cls-6" x="43.67" y="112.96" width="16.35" height=".5" transform="translate(-58.49 55.5) rotate(-37.78)"/>
    <polygon class="cls-6" points="147.52 120 132.61 107.85 132.92 107.46 147.84 119.61 147.52 120"/>
    <g>
      <ellipse class="cls-6" cx="97.23" cy="28.41" rx="19.64" ry="22.76"/>
      <path class="cls-2" d="M121.77,30.73c-2.47-5.6-7.24-.94-7.24-.94,.15-7.45-1.05-15.32-4.29-20.2l-13.01-5.09-13.01,5.09c-3.24,4.88-4.44,12.76-4.29,20.2,0,0-4.77-4.65-7.24,.94-2.71,8.27,6.1,10.95,7.97,8.58,0,0,2.25,15.38,16.57,15.38s16.57-15.38,16.57-15.38c1.87,2.37,10.68-.31,7.97-8.58Z"/>
      <path class="cls-6" d="M97.23,54.94c-3.33,0-6.29-.83-8.8-2.47l.27-.42c2.43,1.58,5.3,2.39,8.53,2.39s6.36-.88,8.86-2.61l.29,.41c-2.58,1.79-5.66,2.7-9.15,2.7Z"/>
      <g>
        <g>
          <path class="cls-6" d="M77.95,37.04c-2.85-.22-4.02-2.3-3.9-4.14,.1-1.55,1.05-2.59,2.33-2.52l-.03,.5c-1.13-.04-1.74,1.02-1.81,2.05-.11,1.6,.93,3.41,3.44,3.61l-.04,.5Z"/>
          <path class="cls-6" d="M74.96,35.46l-.27-.42c.07-.05,1.76-1.12,3.83-.15l-.21,.45c-1.81-.85-3.28,.08-3.34,.12Z"/>
        </g>
        <g>
          <path class="cls-6" d="M116.76,37.04l-.04-.5c2.51-.2,3.55-2.01,3.44-3.61-.07-1.03-.66-2.1-1.8-2.05l-.03-.5c1.29-.07,2.23,.97,2.33,2.52,.12,1.84-1.05,3.92-3.9,4.14Z"/>
          <path class="cls-6" d="M119.76,35.46c-.06-.04-1.54-.96-3.34-.12l-.21-.45c2.07-.97,3.76,.1,3.83,.15l-.27,.42Z"/>
        </g>
      </g>
      <path class="cls-6" d="M80.42,39.36c-.33-1.65-.52-3.36-.55-5.07h.5c.03,1.68,.21,3.35,.54,4.97l-.49,.1Z"/>
      <path class="cls-6" d="M114.02,39.36l-.49-.1c.33-1.62,.51-3.3,.54-4.98h.5c-.03,1.73-.22,3.43-.55,5.08Z"/>
      <path class="cls-6" d="M88.86,11.91l-8.39,.22c-7.16,1.56-4.91,10.32-2.8,16.16l2.34,1.5c-.55-10.38,1.99-16.85,8.84-17.88Z"/>
      <path class="cls-6" d="M116.87,28.28c.83-4.19,1.4-9.58,.59-13.42,1.5-6.45-4.94-16.18-23.47-14.72-18.07,2.04-13.6,11.98-13.6,11.98l3.19,2.29c5.71,3.41,17.82,5.51,27.82,3.16,0,0,2.37,2.83,3.13,12.21,.74-.65,1.41-1.11,2.34-1.5Z"/>
      <g>
        <path class="cls-6" d="M102.44,43.12c-5.69-.82-9-.83-9.83,0l-.35-.36c.97-.96,4.23-1,10.25-.13l-.07,.5Z"/>
        <path class="cls-6" d="M95.49,44.49l-.13-.48c1.36-.38,2.74-.38,4.09,0l-.13,.48c-1.27-.35-2.56-.35-3.83,0Z"/>
        <path class="cls-6" d="M98.13,38.18h-1.66v-.5h1.66c.36,0,.64-.12,.82-.37,.32-.42,.34-1.18,.06-2.15l-1.91-6.09,.48-.15,1.91,6.1c.41,1.45,.15,2.21-.14,2.6-.28,.37-.7,.56-1.22,.56Z"/>
        <circle class="cls-6" cx="88.74" cy="31.73" r="2.56"/>
        <path class="cls-6" d="M108.64,31.73c0,1.41-1.15,2.56-2.56,2.56s-2.56-1.15-2.56-2.56,1.15-2.56,2.56-2.56,2.56,1.15,2.56,2.56Z"/>
        <circle class="cls-6" cx="88.74" cy="31.73" r="1.1"/>
        <circle class="cls-6" cx="106.08" cy="31.73" r="1.1"/>
        <path class="cls-6" d="M85,26.01c2.31-1.08,4.97-1.46,7.55-1.21l-.3,1.98c-2.24-.5-4.61-.48-6.86,.25l-.39-1.01Z"/>
        <path class="cls-6" d="M102.24,25.71c2.62-.31,5.26,.18,7.56,1.21l-.39,1.04c-2.26-.69-4.64-.82-6.84-.28l-.34-1.97Z"/>
      </g>
    </g>
    <rect class="cls-6" x="9.06" y="157.63" width="182.55" height=".5"/>
  </g>
</svg>